<svg xmlns="http://www.w3.org/2000/svg" xmlns:xlink="http://www.w3.org/1999/xlink" version="1.1" id="Layer_1" x="0px" y="0px" width="831px" height="831px" viewBox="110 -19 831 831" style="enable-background:new 110 -19 831 831;" xml:space="preserve"><script xmlns=""/>
    <style type="text/css">
	.st0{fill:#89ADE2;}
	.st1{fill:#7A92D8;}
	.st2{fill:#4C5FA1;}
	.st3{fill:#324681;}
</style>
    <g>
	<path class="st0" d="M120.7,615l46.3-15.8l35.5-12.2c0,0,13-4.5,18.2-6.7s12-5,15.7-7.3s8.7-5,11.8-8.3c3.2-3.3,9.5-12.3,11.5-16.7   c2-4.3,4.8-10.8,6.3-16.3s5.7-22.8,6.5-27.3s4.7-30.3,5-35.5s4.3-51.8,5.2-67.7c0.8-15.8,3.7-82.5,3.7-82.5l3-82.5   c0,0,1.7-53.7,2.7-69.7s1.8-28.3,2.5-40.2c0.7-11.8,3.2-32.5,4-37.7s2.2-12,3.7-16.7s4.7-6.2,4.7-6.2l43.2-5.5c0,0,2.2,1.7,3.5,4.8   c1.3,3.2,5.8,15.2,7.2,20.7s6.7,29.2,7.5,34.7s5.3,29,6.3,35.7s4,24.8,5,31.3s5.8,35.5,7.2,45.2c1.3,9.7,5.5,36.7,6.5,43.8   s3.3,21.8,4.5,30.5s5,32.8,6,39.2c1,6.3,6.7,41.7,8.7,52.5s6.5,36.2,6.5,36.2l-17.8,57.8c0,0-3.6-5.8-4.8-9s-4.8-13.2-5.9-17.2   c-1.2-4-3.5-11.8-5.2-18.3c-1.7-6.6-6.3-25.3-7.2-30.3c-0.9-4.9-2.7-13.4-3.8-19.5c-1.1-6.1-2.7-13-3.8-19.2s-4.5-25.2-5.2-28.8   c-0.7-3.7-3.8-22.2-4.6-26.3c-0.8-4.1-4-24.8-4-24.8l-6.7-40.4l-2.8-16.6l-2.3-14.9l-3-17.4l-3.6-21.3c0,0-2-10.8-2.8-15.5   s-1.9-10-1.9-10s-0.6,1.8-0.8,3.2c-0.2,1.4-0.4,10.4-0.7,13.8c-0.3,3.3-0.8,14.3-0.8,14.3l-0.8,16.5l-2.3,54l-2.2,53l-2.3,49   l-2.2,40.9l-2.3,33.6l-2.3,26.1c0,0-1.8,17.3-2.4,22.5c-0.6,5.2-2.4,19.8-3.3,24.9s-3.3,17.6-4.3,22.3s-3,12.6-3.9,15.8   s-2.8,8.1-3.9,11.3s-4.4,9.5-5.5,11.8s-4.6,7.6-6.4,9.5s-5.3,5.4-7.5,7.5s-8.8,6.3-11.4,7.6s-9.1,4.6-12.1,5.9s-10,4.3-14.5,5.9   s-14.3,5.6-18.1,7s-72.1,27.1-72.1,27.1l-32-31.3L120.7,615z"/>
        <path class="st1" d="M317,628.7l-22.4,9.3l-40.7-30.2l47.1-17.6c0,0,20.9-8,29.9-11.6s20.9-8.8,28-12.8s14-8.5,18.8-12.7   s9.3-9.3,13.1-14.3s7.2-10,9.8-14.9s6.8-13,9-20.3s7.2-23.7,9.7-31.4s7.3-22.3,10.6-36.8s12-54.8,13.5-64.3s4.7-24.3,6.7-33.8   s5.3-26.5,9-40.7s4.8-18.7,7.5-26.2s5.7-13.9,8.3-17.3c2.6-3.3,6.6-5,6.6-5l51.5,6.2c0,0,3.1,2.9,4.6,4.9s4.3,7.2,6,11.7   s4.3,12.1,6.3,18.3c2.1,6.2,5.2,16.7,6.4,22.3c1.3,5.7,6.3,25.9,7.9,33.1c1.6,7.2,2.8,13.2,5.1,23.3s4.2,17.9,4.2,17.9l-24.1,60.6   c0,0-4.6-12-6.8-18.7s-6.4-20.4-7.8-25.3c-1.3-4.9-3.8-14.8-5.3-19.6c-1.4-4.8-4.8-18.7-5.8-22.9s-3.1-12.3-4.2-16.7   c-1.1-4.3-3.9-15-4.8-18.5s-3.6-14.2-4.4-17.3c-0.8-3.1-2.6-9-2.6-9s-0.8,2.2-1.4,4.3c-0.6,2.2-1.5,6.3-2.3,9.6s-3,12.8-3.8,16.5   s-3,14.5-3.8,18.1s-6.1,29.8-6.8,33s-6.5,32.6-7.5,37.4s-9,41.2-9.8,44.3s-5.9,23.3-7.5,29.2c-1.6,5.9-3.5,11.3-5.3,16.7   c-1.8,5.3-4.1,13.4-6,18s-4,9.3-5.9,13.4c-1.9,4.2-3.9,7.2-5.3,9.8c-1.4,2.7-5.8,9.4-7.4,12c-1.7,2.6-5.3,7.1-6.8,8.9   c-1.6,1.8-6.5,6.5-8.8,8.4s-7.5,6.3-10.4,8.2c-2.9,1.8-7.2,4.8-9.7,6s-12.4,6.8-21,10.5s-20.8,9.1-26,11.2   c-5.2,2.1-17.6,7.3-23.3,9.8S317,628.7,317,628.7z"/>
        <path class="st0" d="M477.1,491.9l-11,35.1c0,0,14.9-4.8,19-6.3s15.4-5.5,20.5-7.6s12.5-4.6,17.3-6.5s12.6-5,12.6-5l-40.9-15.9   L477.1,491.9z"/>
        <path class="st1" d="M624.1,468l-9.6,23.5c0,0,4.5,1.9,6.1,2.4s12.4,1,15.8,0s13.4-4.1,17.4-5.8s10.9-4.6,10.9-4.6l9.7-15.1   c0,0-4.3-1-9.1-2.4s-10.3-3-12.3-3.7s-7.1-2.3-7.1-2.3L624.1,468z"/>
        <path class="st2" d="M448.5,622l-16,7.5l-48.6-29.4c0,0,26.2-10.7,34.4-14.1s21-9.1,29.3-12.7s19.3-9.3,23.3-11.3   s14.7-8.4,20.3-12.1s14.4-11,17.9-14.2c3.5-3.2,9.6-9.8,14.6-16.6s4.4-5.1,9.7-13.5s8.8-14.2,11.3-19.4s6.8-13.8,9.1-18.8   s8.4-20.8,11.2-27.8s9.4-23.7,11.9-30.1s7.7-19.5,9.8-24.8s6.3-15.6,8.9-21.8s6.9-14.5,9.1-18.8s5.2-9.1,6.8-11.3s4.6-5.8,7.1-7.5   s8-3.6,8-3.6l57.3,9.8c0,0,5,3.8,8.1,8.3s5.8,9.6,7.9,13.9s5.2,11.4,6.4,14.6s3.8,9.5,3.8,9.5L684.6,425c0,0-3.9-7.6-5.3-10.8   s-4.9-10.9-6-13.4s-4.8-11.1-6.1-14.8s-4.4-11.3-5.9-14.9s-6.3-15.3-6.3-15.3s-5.7,12-7.2,15.8s-6.1,14.9-7.1,17.4   s-6.8,17.8-8.3,22.3s-7.3,19.4-9.9,26.3s-8.4,22.6-10.5,27.7s-6.8,17.7-8.9,21.8s-9.7,20.2-11.3,23.3s-4.7,8.4-6.7,11.9   s-5.6,9.1-7.6,12.2s-7.8,10.4-9.8,13s-10.4,10.8-12.6,12.9s-5.4,5.8-8.3,7.9c-2.9,2.1-5.8,4.6-8.5,6.5s-11.3,7.5-13.6,8.9   s-10.4,6-14.9,8.4s-16,8.1-19.3,9.8s-11.3,5.8-16.1,7.9S448.5,622,448.5,622z"/>
        <path class="st2" d="M753.4,464.6l11.8-23.2l8.9-3.4l45.5,11.4c0,0-14.5,6.7-16.8,7.8c-2.3,1.1-10.5,4.6-13.6,5.8   c-3.1,1.2-8.5,3.1-11.2,3.7c-2.7,0.7-7.4,1.6-10.3,1.6s-12.2-2.3-12.8-2.7C754.2,465.3,753.4,464.6,753.4,464.6z"/>
        <path class="st3" d="M575.6,615.9l-10.1,5.6l-55.6-28.1c0,0,28-13.1,34.5-16.3s27.1-13.9,34.6-17.8s27-15.4,36.8-23.1   s26.5-23.4,35.1-34.5s13.8-18.3,13.8-18.3l9.7-15.1c0,0,11-19.1,13.5-23.6s13.6-25.1,18-33.4s10.3-19.3,13.9-24.6   s10.8-15.8,14.8-20.3s8.5-7.9,12.4-9.9s8-2.4,8-2.4l60.9,11.1c0,0,6.5,4.6,9.5,8.4s10.1,15,13.3,20.6s7.3,13.5,10.5,18.9   s10.8,16.5,10.8,16.5s11.3-4.5,14.8-6s10.5-4.9,10.5-4.9l46.7,10c0,0-15.5,7.8-20.7,10.2c-5.2,2.3-7.5,3.5-11.7,4.7   s-7.2,2.2-12.3,2.2c-5.2,0-12.7-2.2-19-3.5s-40.2-9.5-40.2-9.5s-10.5-5.2-14.3-9.3c-3.8-4.2-9.2-11.2-11.7-14.7   s-16.5-26.7-16.5-26.7s-6.7,9.8-9.5,14.7c-2.8,4.8-9.2,15.8-12.5,22.7s-17.2,32.7-20.5,39.3c-3.3,6.7-10.5,20.2-15.2,28.2   c-4.7,8-12,19.7-17.6,27.8c-5.7,8.2-15.4,19.8-21.2,26s-18.7,17.2-25.3,22.7c-6.7,5.5-20.8,14.7-28.2,19.2s-16.7,10.2-23.8,14   C604.2,600.5,575.6,615.9,575.6,615.9z"/>
</g>
</svg>